<?xml version="1.0" standalone="no"?>
<!DOCTYPE svg PUBLIC "-//W3C//DTD SVG 1.1//EN" "http://www.w3.org/Graphics/SVG/1.1/DTD/svg11.dtd" >
<!--
2013-9-30: Created.
-->
<svg>
<metadata>
Created by iconfont
</metadata>
<defs>

<font id="iconfont" horiz-adv-x="1024" >
  <font-face
    font-family="iconfont"
    font-weight="500"
    font-stretch="normal"
    units-per-em="1024"
    ascent="896"
    descent="-128"
  />
    <missing-glyph />
    
    <glyph glyph-name="dianpu" unicode="&#58880;" d="M1018.88 526.336q5.12-35.84-11.264-68.608t-53.248-53.248l0-340.992q0-29.696-10.24-53.76t-28.16-41.472-40.96-27.136-48.64-9.728l-575.488 0q-27.648 0-51.2 9.728t-41.472 27.136-27.648 41.472-9.728 53.76l0 340.992q-35.84 21.504-53.248 53.76t-11.264 68.096l51.2 246.784q5.12 24.576 24.064 41.472t44.544 16.896l204.8 0 317.44 0 197.632 0q30.72 0 50.688-16.896t25.088-41.472zM888.832 374.784q-14.336-3.072-29.696-3.072-32.768 0-61.44 11.776t-50.688 32.256-34.816 48.128-13.824 59.392q-1.024-31.744-13.312-59.392t-33.792-48.128-50.176-32.256-61.44-11.776-61.952 12.288-50.688 33.28-33.792 49.152-12.288 59.904q0-31.744-13.312-59.904t-35.84-49.152-52.736-33.28-62.976-12.288q-15.36 0-30.72 3.072l0-118.784q0-12.288 5.632-24.576t14.848-21.504 20.48-14.848 22.528-5.632l577.536 0q10.24 0 21.504 5.12t20.48 13.312 14.848 19.968 5.632 24.064l0 122.88z"  horiz-adv-x="1024" />

    
    <glyph glyph-name="youjiantou" unicode="&#58883;" d="M502.11230469 805.875c-227.54577942 0-411.98730469-184.44160766-411.98730469-411.98730469s184.44160766-411.98730469 411.98730469-411.98730469 411.98730469 184.44160766 411.98730469 411.98730469-184.44160766 411.98730469-411.98730469 411.98730469zM502.11230469 59.14801025999998c-184.87930298 0-334.73968506 149.86038208-334.73968506 334.73968505s149.86038208 334.73968506 334.73968506 334.73968506 334.73968506-149.86038208 334.73968505-334.73968506-149.86038208-334.73968506-334.73968505-334.73968505zM744.51533508 430.29707336l-205.99365234 205.99365235c-20.11017151 20.11017151-52.708667 20.11017151-72.8187561 0s-20.11017151-52.708667 0-72.8187561l118.0858612-118.08586121h-287.6701355c-28.45291443 0-51.49841309-23.04558105-51.49841309-51.49841309s23.04558105-51.49841309 51.49841309-51.49841308h287.6701355l-118.0858612-118.08586121c-20.11017151-20.11017151-20.11017151-52.708667 0-72.84454651 10.06798096-10.04219055 23.2257843-15.08903503 36.40937805-15.08903503s26.3671875 5.02113648 36.40937805 15.08903503l205.99365234 205.99365234c20.11017151 20.11017151 20.11017151 52.708667 0 72.81875611z"  horiz-adv-x="1000" />

    
    <glyph glyph-name="unie637" unicode="&#59100;" d="M915.008 557.856l-806.016 0c-17.152 0-31.008-13.856-31.008-31.008l0-279.008c0-17.152 13.856-31.008 31.008-31.008l31.008 0 0-310.016c0-17.152 13.856-31.008 31.008-31.008l682.016 0c17.152 0 31.008 13.856 31.008 31.008l0 310.016 31.008 0c17.152 0 31.008 13.856 31.008 31.008l0 279.008c0 17.152-13.856 31.008-31.008 31.008zM450.016-31.168c0-17.152-13.856-31.008-31.008-31.008l-186.016 0c-17.152 0-31.008 13.856-31.008 31.008l0 248c0 17.152 13.856 31.008 31.008 31.008l186.016 0c17.152 0 31.008-13.856 31.008-31.008l0-248zM450.016 340.832c0-17.152-13.856-31.008-31.008-31.008l-248 0c-17.152 0-31.008 13.856-31.008 31.008l0 124c0 17.152 13.856 31.008 31.008 31.008l248 0c17.152 0 31.008-13.856 31.008-31.008l0-124zM822.016-31.168c0-17.152-13.856-31.008-31.008-31.008l-186.016 0c-17.152 0-31.008 13.856-31.008 31.008l0 248c0 17.152 13.856 31.008 31.008 31.008l186.016 0c17.152 0 31.008-13.856 31.008-31.008l0-248zM884 340.832c0-17.152-13.856-31.008-31.008-31.008l-248 0c-17.152 0-31.008 13.856-31.008 31.008l0 124c0 17.152 13.856 31.008 31.008 31.008l248 0c17.152 0 31.008-13.856 31.008-31.008l0-124zM374.336 557.888l285.184 0c48.896 35.072 95.104 80.704 100.608 130.432 2.656 24.288-2.528 59.84-42.624 91.488-22.24 17.568-44.8 26.464-66.976 26.464-70.752 0-110.752-86.752-132.416-164.224-25.856 98.784-75.776 225.824-161.472 225.824-25.024 0-49.92-10.816-74.112-32.192-47.744-42.208-52.416-86.112-47.968-115.52 10.016-65.696 76.096-122.144 139.776-162.272zM650.496 731.84c6.848 0 15.68-4.096 25.504-11.904 16-12.576 15.104-20.384 14.848-22.976-2.976-27.136-53.856-69.76-113.184-104.928 17.44 75.04 45.984 139.808 72.832 139.808zM327.04 778.4c7.776 6.88 19.264 15.072 29.568 15.072 38.368 0 77.856-100.736 100.832-198.72-72.48 38.624-147.392 93.408-154.112 137.376-0.896 6.08-3.392 22.336 23.68 46.272z"  horiz-adv-x="1024" />

    
    <glyph glyph-name="mima" unicode="&#58919;" d="M720.275046-60.335924 333.570703-60.335924c-95.126544 0-148.269905 20.939915-148.269905 131.341351L185.300798 393.048073c0 14.728446 13.530155 26.669406 28.257577 26.669406l600.057545 0c14.728446 0 25.080212-11.94096 25.080212-26.669406l0-322.042647C838.697155-24.316569 829.932538-60.335924 720.275046-60.335924zM238.63961 366.378667l0-295.373241c0-67.794036 13.803377-78.003562 94.931093-78.003562l386.704342 0c66.672492 0 65.084321 0 65.084321 78.003562L785.359366 366.378667 238.63961 366.378667zM305.313126 153.017278c-7.370875 0-13.334703 5.963829-13.334703 13.334703L291.978423 313.038832c0 7.370875 7.552 13.334703 14.922874 13.334703l66.673515 0c7.357572 0 13.334703-5.963829 13.334703-13.334703 0-7.368828-5.977132-13.332656-13.334703-13.332656l-54.926984 0 0-133.353171C318.647829 158.981107 312.670697 153.017278 305.313126 153.017278zM305.313126 86.344786c-7.370875 0-13.334703 5.963829-13.334703 13.334703L291.978423 113.014192c0 7.370875 5.963829 13.334703 13.334703 13.334703 7.357572 0 13.334703-5.963829 13.334703-13.334703l0-13.334703C318.647829 92.308615 312.670697 86.344786 305.313126 86.344786zM718.685851 379.71337c-14.728446 0-26.669406 11.94096-26.669406 26.669406L692.016445 602.116693c0 96.28595-75.240635 177.6347-166.186973 177.6347l-1.641383 0c-94.449115 0-178.870854-83.002412-178.870854-177.6347l0-195.73494c0-14.728446-11.94096-26.669406-26.669406-26.669406s-26.669406 11.94096-26.669406 26.669406L291.978423 602.116693c0 123.046431 109.346407 230.972489 232.209666 230.972489L525.829472 833.089182c121.924887 0 219.525786-103.616916 219.525786-230.972489l0-195.73494C745.355257 391.65433 733.414297 379.71337 718.685851 379.71337z"  horiz-adv-x="1024" />

    
    <glyph glyph-name="caidan" unicode="&#59280;" d="M133.310936 599.447673l757.206115 0c19.781623 0 35.950949 16.169326 35.950949 35.950949 0 19.781623-15.997312 35.950949-35.950949 35.950949L133.310936 671.349572c-19.781623 0-35.950949-16.169326-35.950949-35.950949C97.359987 615.617 113.529313 599.447673 133.310936 599.447673zM890.51705 419.864942 133.310936 419.864942c-19.781623 0-35.950949-16.169326-35.950949-35.950949 0-19.781623 16.169326-35.950949 35.950949-35.950949l757.206115 0c19.781623 0 35.950949 16.169326 35.950949 35.950949C926.467999 403.695616 910.298673 419.864942 890.51705 419.864942zM890.51705 168.552327 133.310936 168.552327c-19.781623 0-35.950949-15.997312-35.950949-35.950949s16.169326-35.950949 35.950949-35.950949l757.206115 0c19.781623 0 35.950949 15.997312 35.950949 35.950949S910.298673 168.552327 890.51705 168.552327z"  horiz-adv-x="1024" />

    
    <glyph glyph-name="caidan1" unicode="&#58888;" d="M978.560364 709.818182c0-24.522182-16.638545-46.545455-37.158545-46.545455L177.188 663.272727c-20.520727 0-37.159273 22.023273-37.159273 46.545455l0 0c0 24.522182 16.637818 46.545455 37.159273 46.545455l764.213818 0C961.921818 756.363636 978.560364 734.340364 978.560364 709.818182L978.560364 709.818182zM978.560364 384c0-24.522182-16.638545-46.545455-37.158545-46.545455L177.188 337.454545c-20.520727 0-37.159273 22.023273-37.159273 46.545455l0 0c0 24.522182 16.637818 46.545455 37.159273 46.545455l764.213818 0C961.921818 430.545455 978.560364 408.522182 978.560364 384L978.560364 384zM978.560364 58.181818c0-24.522182-16.638545-46.545455-37.158545-46.545455L177.188 11.636364c-20.520727 0-37.159273 22.023273-37.159273 46.545455l0 0c0 24.522182 16.637818 46.545455 37.159273 46.545455l764.213818 0C961.921818 104.727273 978.560364 82.704 978.560364 58.181818L978.560364 58.181818z"  horiz-adv-x="1152" />

    
    <glyph glyph-name="shouye" unicode="&#58917;" d="M867.388103 437.860698c-16.591887 5.012154-33.967626-4.321422-38.959314-20.821211-9.688663-31.974225-22.997784-62.149479-39.538505-89.701998-57.707306-96.117105-158.449755-151.241586-276.41547-151.241586-117.996414 0-218.759329 55.144948-276.456403 151.282518-16.521279 27.552519-29.80891 57.707306-39.488363 89.620134-5.012154 16.490579-22.438035 25.824155-38.959314 20.821211-16.500812-5.012154-25.824155-22.448268-20.821211-38.959314 11.17348-36.814464 26.545586-71.676459 45.710065-103.619986C245.514693 190.164317 355.673605 124.342192 481.241462 114.927775l0-147.536194c0-17.252943 13.979386-31.232328 31.232328-31.232328s31.232328 13.979386 31.232328 31.232328L543.706119 114.927775c125.523855 9.41544 235.669464 75.217099 298.741965 180.26255 19.174712 31.934317 34.577516 66.836221 45.76123 103.712083C893.211235 415.41243 883.888915 432.848545 867.388103 437.860698zM881.625362 674.595424c-9.445116 22.174022-31.242562 36.804231-55.836703 37.282115l-9.587356 0.091074c-55.643298 0-106.48729-16.714683-151.333684-35.329646C625.685225 743.892697 589.156264 788.758534 551.081087 816.595532c-2.134617 1.839905-4.443196 3.558036-6.944156 5.164626-17.304108 11.041474-38.928614 12.830213-57.767682 4.818749-5.438872-2.287089-10.502192-5.317099-15.077394-9.03784-37.892005-27.369348-75.661214-73.190953-115.027803-139.631154-44.348044 17.954931-94.358041 34.089399-147.96803 34.089399l-9.445116-0.101307c-24.288173-0.488117-46.076408-15.108093-55.521524-37.261649-21.60404-50.701752-30.449499-111.1331-25.600051-174.757163 1.25048-16.389272 14.935154-28.853142 31.110555-28.853142 0.793062 0 1.596358 0.030699 2.409886 0.091074 17.192567 1.311879 30.073946 16.317641 28.762067 33.520441-4.066619 53.375651 3.009544 103.427604 20.48659 144.816247l8.112772 0.080841c52.034097 0 101.95302-19.652596 148.618852-39.783075 14.700817-6.324032 31.842219-0.539282 39.651069 13.470803 40.168862 72.04178 76.688613 119.195729 111.662149 144.165424 0.731664 0.518816 1.026376 1.341554 1.707898 1.932002 0.945535-0.873903 1.952468-1.697665 2.99931-2.449795 34.740222-25.02086 71.00517-72.469522 110.848621-145.040351 7.807826-14.213723 25.193799-20.079314 40.026622-13.532201 44.998867 19.937075 97.56099 41.206494 151.770636 41.206494l8.559956-0.080841c16.490579-39.060621 23.77038-86.204337 21.055548-136.418996-0.935302-17.222243 12.271488-31.94455 29.493731-32.869618 17.090237-1.209548 31.94455 12.261255 32.869618 29.493731C911.129326 569.612395 902.050554 626.668879 881.625362 674.595424zM390.593929 563.969884c-17.252943 0-31.232328-13.979386-31.232328-31.232328l0-30.469965c0-17.252943 13.979386-31.232328 31.232328-31.232328 17.252943 0 31.232328 13.979386 31.232328 31.232328l0 30.469965C421.827281 549.990498 407.846872 563.969884 390.593929 563.969884zM634.363885 563.969884c-17.252943 0-31.232328-13.979386-31.232328-31.232328l0-30.469965c0-17.252943 13.979386-31.232328 31.232328-31.232328s31.232328 13.979386 31.232328 31.232328l0 30.469965C665.597237 549.990498 651.617851 563.969884 634.363885 563.969884zM589.500095 422.529525c-14.304797 9.404184-33.591049 5.38873-43.157939-8.763594-0.132006-0.193405-13.613042-19.753903-34.170241-19.753903-19.98824 0-32.432667 18.117636-33.265638 19.378349-9.181103 14.416338-28.284183 18.808368-42.832528 9.750061-14.650675-9.099239-19.154245-28.354791-10.044774-43.005466 11.214413-18.046005 41.968857-48.587602 86.143962-48.587602 43.961234 0 75.102489 30.317493 86.570681 48.221258C607.962585 394.163477 603.774193 413.125341 589.500095 422.529525zM855.131965 139.800255c-10.279111 13.878079-29.819143 16.805758-43.686988 6.557346L603.228771-7.486252c-13.867846-10.248412-16.805758-29.80891-6.557346-43.686988 6.130627-8.28571 15.575744-12.667507 25.142633-12.667507 6.456039 0 12.95301 1.982144 18.544355 6.110161l208.216205 153.844877C862.441441 106.361679 865.380376 125.922177 855.131965 139.800255zM421.730067-7.486252 213.513862 146.357602c-13.888312 10.248412-33.428344 7.319709-43.686988-6.557346-10.248412-13.878079-7.309476-33.438577 6.557346-43.686988l208.216205-153.844877c5.591345-4.128017 12.088316-6.110161 18.544355-6.110161 9.56689 0 19.012006 4.381797 25.142633 12.667507C438.535825-37.296185 435.597913-17.734664 421.730067-7.486252z"  horiz-adv-x="1024" />

    
    <glyph glyph-name="jifen" unicode="&#58916;" d="M433.68843 503.051296c101.861174 0 207.804288 22.402015 271.42708 65.115205l0-77.763622 58.948509 0L764.064018 660.668163c0 102.359862-170.169196 157.621732-330.275851 157.621732C273.676647 818.289895 103.412579 763.028025 103.412579 660.668163l0-464.692803c0-102.359862 170.16433-157.621732 330.275851-157.621732l0 58.843906c-168.174446 0-271.431945 57.555833-271.431945 98.777826L162.256485 335.671102c63.627657-42.613453 169.471033-65.12007 271.431945-65.12007l0 58.948509c-168.174446 0-271.431945 57.550967-271.431945 98.771745L162.256485 568.066764C225.884142 525.453311 331.827255 503.051296 433.68843 503.051296L433.68843 503.051296zM433.68843 759.445989c168.174446 0 271.42708-57.557049 271.42708-98.777826 0-41.221993-103.25385-98.772961-271.42708-98.772961-168.174446 0-271.431945 57.550967-271.431945 98.772961C162.256485 701.88894 265.613722 759.445989 433.68843 759.445989L433.68843 759.445989zM697.747098 470.789866c-146.266253 0-222.736937-56.258029-222.736937-111.819112l0-298.614061c0-55.556218 76.570421-111.815463 222.736937-111.815463 145.177655 0 221.544952 55.461345 222.741802 110.622262l0.099737 0L920.588637 358.970754C920.4889 414.531837 844.018216 470.789866 697.747098 470.789866L697.747098 470.789866zM697.747098 411.942311c108.137339 0 163.893031-37.140054 163.893031-52.971557s-55.755693-52.971557-163.893031-52.971557c-108.132473 0-163.893031 37.140054-163.893031 52.971557S589.613408 411.942311 697.747098 411.942311L697.747098 411.942311zM697.747098 7.385136c-108.132473 0-163.893031 37.140054-163.893031 52.971557l0 71.296497c37.339529-20.316041 92.207314-33.857231 163.893031-33.857231 71.690582 0 126.45863 13.541189 163.893031 33.857231l0-71.296497C861.640129 44.526406 805.884436 7.385136 697.747098 7.385136L697.747098 7.385136zM697.747098 156.744468c-108.132473 0-163.893031 37.140054-163.893031 52.971557l0 71.291632c37.339529-20.311176 92.207314-33.852366 163.893031-33.852366 71.690582 0 126.45863 13.541189 163.893031 33.852366l0-71.291632C861.640129 193.884522 805.884436 156.744468 697.747098 156.744468L697.747098 156.744468zM697.747098 156.744468"  horiz-adv-x="1024" />

    
    <glyph glyph-name="fenxiang" unicode="&#58931;" d="M365.605 633.9l127.793 127.794 0.152-503.227c0.004-11.015 8.934-19.943 19.949-19.943 0.002 0 0.004 0 0.006 0 11.017 0.004 19.947 8.938 19.943 19.954l-0.152 503.1 127.676-127.677c3.897-3.897 9-5.843 14.106-5.843 5.104 0 10.213 1.948 14.106 5.842 7.79 7.79 7.79 20.422 0 28.213l-161.331 161.332c-3.639 3.87-8.791 6.3-14.522 6.3-0.002 0-0.004 0-0.006 0-0.006 0-0.012-0.001-0.018-0.001-0.006 0-0.012 0.001-0.018 0.001-5.292 0-10.364-2.102-14.106-5.842l-161.79-161.79c-7.789-7.79-7.789-20.422 0-28.213 7.79-7.791 20.422-7.791 28.213-0.001zM782.508 580.913h-139.795c-11.017 0-19.949-8.931-19.949-19.949s8.932-19.949 19.949-19.949h139.795c38.499 0 69.821-31.322 69.821-69.821v-425.444c0-38.499-31.322-69.821-69.821-69.821l-536.498-0c-38.499 0-69.821 31.322-69.821 69.821l0 425.445c0 38.499 31.322 69.821 69.821 69.821h143.936c11.018 0 19.949 8.931 19.949 19.949s-8.931 19.949-19.949 19.949l-143.936 0c-60.5 0-109.719-49.22-109.719-109.719v-425.444c0-60.5 49.22-109.719 109.719-109.719h536.498c60.5 0 109.719 49.22 109.719 109.719l0 425.443c0.001 60.5-49.219 109.719-109.719 109.719z"  horiz-adv-x="1024" />

    
    <glyph glyph-name="mima1" unicode="&#58895;" d="M780.99456 476.672H376.91904V626.36032c0 49.57696 60.31872 104.74496 134.66112 104.74496 74.368 0 134.7584-55.168 134.7584-104.74496v-44.928h0.52736a52.29568 52.29568 0 0 1 51.77344-44.89728c26.4448 0 48.22016 19.5072 51.8656 44.89728h0.59392v44.92288c0 115.712-107.27936 209.52576-239.5136 209.52576-132.21376 0-239.4624-93.81376-239.4624-209.52576V476.672h-29.95712c-49.55136 0-89.7536-40.20736-89.7536-89.78944v-359.2192c0-49.58208 40.20224-89.77408 89.7536-89.77408h538.8288c49.61792 0 89.78432 40.192 89.78432 89.77408v359.2192c0 49.58208-40.1664 89.78944-89.78432 89.78944z m-224.47616-331.52v-40.93952c0-25.71264-20.1216-46.54592-44.93824-46.54592-24.7552 0-44.90752 20.83328-44.90752 46.54592v40.9344c-35.36384 16.57344-59.88864 52.1728-59.88864 93.42976 0 57.11872 46.96064 103.43424 104.79616 103.43424 57.89696 0 104.79616-46.31552 104.79616-103.43424 0-41.25184-24.46336-76.85632-59.85792-93.42976z"  horiz-adv-x="1024" />

    
    <glyph glyph-name="pinglun" unicode="&#58918;" d="M512.010389-128c-10.070722 0-20.141444 3.970976-27.878705 11.994803l-118.126292 122.875087a42.063686 42.063686 0 0 0 0 57.92712 38.27693 38.27693 0 0 0 55.655066 0L512.010389-29.134987l90.268055 93.931997c7.38929 7.737262 17.398605 12.015272 27.837768 12.015271h275.77812c21.738021 0 39.300378 18.340176 39.300378 40.917425V773.145381c0 22.53631-17.562356 40.937894-39.300378 40.937894H118.146915c-21.676615 0-39.402723-18.401583-39.402722-40.937894v-655.415675c0-22.597717 17.726108-40.917425 39.402722-40.917425h118.187699c21.738021 0 39.341316-18.299238 39.341316-40.958362 0-22.638655-17.603294-40.978831-39.341316-40.978832H118.146915c-65.152658 0-118.146761 55.122874-118.14676 122.854619V773.145381c0 67.731745 52.994103 122.854619 118.14676 122.854619h787.747417c65.132189 0 118.126292-55.122874 118.126292-122.854619v-655.415675c0-67.731745-52.994103-122.854619-118.126292-122.854619H646.470901l-106.622744-110.880284a38.48162 38.48162 0 0 0-27.837768-11.994803zM295.407995 404.479181c-32.607032 0-59.07338 27.571671-59.073381 61.447778 0 33.876107 26.466348 61.447778 59.073381 61.447779 32.525156 0 59.052911-27.571671 59.052911-61.447779 0.020469-33.876107-26.527755-61.447778-59.052911-61.447778z m236.273052 0c-32.545625 0-59.07338 27.571671-59.07338 61.447778 0 33.876107 26.527755 61.447778 59.07338 61.447779 32.607032 0 59.093849-27.571671 59.093849-61.447779 0-33.876107-26.486817-61.447778-59.093849-61.447778z m236.354928 0c-32.627501 0-59.093849 27.571671-59.093849 61.447778 0 33.876107 26.466348 61.447778 59.093849 61.447779 32.504687 0 59.052911-27.571671 59.052912-61.447779 0-33.876107-26.548224-61.447778-59.052912-61.447778z"  horiz-adv-x="1024" />

    
    <glyph glyph-name="mima2" unicode="&#58905;" d="M780.8 541.42H665.6v42.89c0 72.31-19.85 193.3-153.6 193.3-138.87 0-153.6-135.05-153.6-193.3v-42.89H243.2v42.89C243.2 773.75 348.79 896 512 896s268.8-122.25 268.8-311.69v-42.89z m-192-314.84c0 43.52-34.58 78.65-76.8 78.65s-76.8-35.13-76.8-78.65c0-29.46 15.4-54.47 38.44-67.82v-89.64c0-21.74 17.25-39.7 38.4-39.7s38.4 17.96 38.4 39.7v89.64c23 13.35 38.36 38.36 38.36 67.82zM896 384v-393.61c0-65.26-51.87-118.39-115.2-118.39H243.2c-63.291 0-115.2 53.13-115.2 118.39V384c0 65.22 51.87 118.39 115.2 118.39h537.6c63.33 0 115.2-53.17 115.2-118.39z"  horiz-adv-x="1024" />

    
    <glyph glyph-name="zan_weidian" unicode="&#58891;" d="M787.941053 446.248421h-187.715369s93.830737 92.375579 93.830737 218.812632c0 126.598737-89.465263 140.719158-125.143579 140.719158-35.678316 0-46.888421-11.210105-46.888421-31.258948 0-233.957053-187.715368-359.585684-187.715368-359.585684v-422.103579h375.430736c168.690526 0 219.028211 57.128421 219.028211 265.808842 0 208.572632-140.826947 187.553684-140.826947 187.553684z m-516.311579-31.258947a31.258947 31.258947 0 0 1-31.258948 31.258947H115.280842a31.258947 31.258947 0 0 1-31.258947-31.258947v-406.474106a31.258947 31.258947 0 0 1 31.258947-31.366736h125.197474c17.246316 0 31.258947 14.012632 31.258947 31.366736V414.935579z m422.426947-484.621474H312.912842c-10.994526-9.808842-25.438316-15.683368-41.229474-15.683368H83.968a62.517895 62.517895 0 0 0-62.625684 62.517894V446.194526c0 34.492632 28.025263 62.517895 62.625684 62.517895H271.629474c18.162526 0 34.492632-7.760842 45.918315-20.156632 38.858105 31.636211 141.797053 130.155789 141.797053 285.911579 0 93.345684 93.884632 93.830737 93.884632 93.830737s203.398737 28.779789 203.398737-218.812631c0-53.786947-31.258947-140.773053-31.258948-140.773053h46.888421s219.136 36.648421 219.136-234.442105c0-271.198316-76.853895-343.956211-297.391158-343.956211z"  horiz-adv-x="1024" />

    
    <glyph glyph-name="xin" unicode="&#59405;" d="M870.5 689.4h-719c-48.3 0-87.5-39.3-87.5-87.6v-435.7c0-48.3 39.3-87.6 87.5-87.6h719c48.3 0 87.5 39.3 87.5 87.6V601.8c0 48.3-39.3 87.6-87.5 87.6z m0-56.4c4.1 0 8-0.8 11.6-2.3L519.9 347 154.3 633h716.2zM165.2 134.9l242.2 170.8c8.5 6 10.5 17.7 4.5 26.2s-17.7 10.5-26.2 4.5L123.9 151.8c-2.2 4.3-3.6 9.1-3.6 14.3V601.8c0 3.1 0.6 6.1 1.5 9l375-293.3c6.8-5.3 15-8 23.2-8s16.4 2.7 23.2 8l358.6 280.8v-432.2c0-0.6-0.2-1.2-0.2-1.8L657.3 336.4c-8.5 6-20.2 3.9-26.2-4.5-6-8.5-4-20.2 4.5-26.2l241.2-170.1c-2.1-0.4-4.2-0.7-6.4-0.7H165.2z"  horiz-adv-x="1024" />

    
    <glyph glyph-name="zhishi" unicode="&#59001;" d="M804.096 383.556267L557.294933 261.802667a102.417067 102.417067 0 0 0-45.294933-10.496 102.690133 102.690133 0 0 0-45.346133 10.496l-246.766934 121.736533c-22.664533 11.195733-49.220267-5.307733-49.220266-30.6176V63.829333c0-84.8384 152.814933-153.6 341.333333-153.6s341.333333 68.7616 341.333333 153.6V352.938667c0 25.2928-26.555733 41.796267-49.237333 30.6176zM1003.4688 619.246933L527.104 854.254933a34.167467 34.167467 0 0 1-30.208 0L20.5312 619.246933c-25.378133-12.526933-25.378133-48.708267 0-61.218133l29.5936-14.609067v-211.848533a25.6 25.6 0 1 1 51.2 0V518.161067l395.5712-195.140267a34.167467 34.167467 0 0 1 30.208 0l476.3648 235.008c25.378133 12.509867 25.378133 48.6912 0 61.218133zM75.741867 254.7712a25.6 25.6 0 0 1-25.6-25.6v-34.133333a25.6 25.6 0 1 1 51.2 0v34.133333a25.6 25.6 0 0 1-25.6 25.6z"  horiz-adv-x="1024" />

    
    <glyph glyph-name="lvzhi" unicode="&#58882;" d="M454.2-95.8C526 529.2 241.1 730.5 151.1 771.4 278.5 641 331.3 401.4 323.9 337.2h-63.7c-15 0-27.3-12.3-27.3-27.3v-6.8c0-15 12.3-27.3 27.3-27.3h11.5l37.7-342.2c1.8-16.7 15.9-29.3 32.7-29.3l112.1-0.1zM468.2 330.3c-3.4 0-6.4 2.6-6.8 6.2-9 95.5-62.7 218.6-140.2 321.1-76.8 101.6-162.7 165.1-238.7 177.6C280.4 699.8 333.6 409.5 330.7 336.9c-0.1-3.8-3.3-6.7-7.1-6.6-3.8 0.1-6.7 3.3-6.6 7.1 0.5 15-1.8 46.1-10 88-6.3 32.1-18.5 82-40.3 138.1-33.4 85.7-96.7 202.3-207.9 270.7-3.6 2.3-5.1 6.6-3.8 10.5 1.2 3.8 5.1 6.4 9 6.2 84.5-4.2 182.2-71.6 268.1-185.1 79-104.4 133.7-230.1 143-328.1 0.4-3.7-2.5-7.1-6.2-7.4h-0.7zM248.4 467.6c-2.5 0-4.6 1.6-5.3 4.1-1.8 7-3.7 14.1-5.7 20.9-0.8 2.9 0.8 5.9 3.7 6.8 2.9 0.8 5.9-0.8 6.8-3.7 2.1-7 4-14.2 5.9-21.2 0.8-2.9-1-5.9-4-6.7-0.4-0.2-1-0.2-1.4-0.2z m-13 44.7c-2.3 0-4.5 1.5-5.2 3.8-2.2 6.8-4.5 13.8-6.8 20.6-1 2.9 0.5 6 3.4 7s6-0.5 7-3.4c2.5-6.8 4.8-13.9 7-20.9 1-2.9-0.7-6-3.6-6.8-0.5-0.3-1.2-0.3-1.8-0.3z m-15.3 43.7c-2.2 0-4.2 1.4-5.1 3.6-2.6 6.8-5.3 13.5-8.1 20.2-1.1 2.7 0.1 6 3 7.1 2.7 1.1 6-0.1 7.1-3 2.7-6.7 5.6-13.5 8.2-20.5 1.1-2.9-0.3-6-3.1-7.1-0.7-0.1-1.4-0.3-2-0.3z m-17.9 42.9c-2.1 0-4.1 1.2-4.9 3.1-3 6.6-6.2 13.3-9.3 19.7-1.4 2.7-0.3 6 2.5 7.4 2.7 1.4 6 0.3 7.4-2.5 3.1-6.6 6.4-13.3 9.4-20 1.2-2.7 0-6-2.7-7.2-0.9-0.3-1.7-0.5-2.4-0.5z m-20.6 41.7c-1.9 0-3.8 1.1-4.8 2.9-3.4 6.4-7 12.7-10.5 19-1.5 2.6-0.7 6 2.1 7.5 2.6 1.5 6 0.7 7.5-2.1 3.7-6.3 7.2-12.7 10.8-19.3 1.4-2.6 0.4-6-2.2-7.4-1.1-0.4-2.1-0.6-2.9-0.6z m-23.4 40.2c-1.8 0-3.6 1-4.6 2.6-3.8 6.2-7.9 12.2-11.9 18-1.6 2.5-1.1 5.9 1.4 7.7 2.5 1.6 5.9 1.1 7.7-1.4 4.1-6 8.2-12.2 12.2-18.5 1.6-2.6 0.8-5.9-1.6-7.5-1.1-0.6-2.2-0.9-3.2-0.9z m-26.4 38.3c-1.6 0-3.3 0.8-4.4 2.2-4.4 5.7-8.9 11.5-13.4 17.1-1.9 2.3-1.5 5.7 0.8 7.7 2.3 1.9 5.7 1.5 7.7-0.8 4.6-5.6 9.2-11.5 13.7-17.4 1.8-2.5 1.4-5.9-1.1-7.7-0.9-0.8-2-1.1-3.3-1.1z m-29.5 35.8c-1.5 0-3 0.5-4.1 1.8-3.3 3.7-6.7 7.4-10.1 10.9-2.1 2.2-2.1 5.6 0.1 7.8 2.2 2.1 5.6 2.1 7.8-0.1 3.6-3.7 7-7.4 10.4-11.2 2.1-2.2 1.8-5.7-0.4-7.7-1.1-1.1-2.3-1.5-3.7-1.5zM666 330.3c-3.7 0-6.8 3-6.8 6.7-1.1 60.4 30.8 163.8 79.3 257.4 56 108.3 127.7 193.4 203.1 242C743 819.7 602.3 610.8 584.3 419.5c-0.4-3.7-3.7-6.6-7.4-6.2-3.7 0.4-6.6 3.7-6.2 7.4C580.5 523.8 624.1 629 690.5 709.4 725.8 752 765.8 785.9 809.7 810c47.6 26.1 98.1 39.9 150.5 41.1h0.1c4.1 0 7.7-2.7 8.7-6.7 1.1-4-0.7-7.9-4.2-10-79.1-45-155.1-132.5-214-246.3-55-105.9-78.6-202.4-77.8-251-0.1-3.6-3.1-6.8-7-6.8 0.2 0 0 0 0 0zM747.4 464.2c-0.5 0-1.2 0.1-1.8 0.3-2.9 1-4.4 4.1-3.4 7 2.3 6.8 4.8 13.8 7.2 20.8 1.1 2.9 4.2 4.2 7 3.3 2.9-1.1 4.2-4.2 3.3-7-2.5-6.8-4.9-13.7-7.2-20.5-0.8-2.4-2.8-3.9-5.1-3.9z m16.1 43.6c-0.7 0-1.4 0.1-2.1 0.4-2.9 1.1-4.1 4.4-3 7.1 2.7 6.7 5.6 13.5 8.5 20.4 1.2 2.7 4.4 4.1 7.2 2.9 2.7-1.2 4.1-4.4 2.9-7.2-2.9-6.7-5.7-13.4-8.3-20.1-1-2.2-3-3.5-5.2-3.5z m18.5 42.6c-0.8 0-1.5 0.1-2.3 0.5-2.7 1.2-4 4.5-2.6 7.2 3.1 6.7 6.3 13.3 9.6 19.8 1.4 2.7 4.6 3.8 7.4 2.5 2.7-1.4 3.8-4.6 2.5-7.4-3.1-6.4-6.3-13-9.4-19.5-1.3-1.9-3.2-3.1-5.2-3.1z m20.6 41.7c-0.8 0-1.8 0.1-2.6 0.7-2.7 1.4-3.7 4.8-2.3 7.4 3.4 6.6 7 13 10.5 19.3 1.5 2.6 4.8 3.6 7.4 2.1s3.6-4.8 2.1-7.4c-3.6-6.3-7-12.7-10.4-19.1-0.9-1.9-2.8-3-4.7-3z m22.7 40.5c-1 0-1.9 0.3-2.9 0.8-2.6 1.5-3.4 4.9-1.9 7.5 3.8 6.3 7.7 12.6 11.6 18.7 1.6 2.6 5.1 3.3 7.5 1.6 2.6-1.6 3.3-5.1 1.6-7.5-3.8-6-7.7-12.3-11.3-18.5-0.9-1.7-2.7-2.6-4.6-2.6z m25 39.2c-1.1 0-2.2 0.3-3 1-2.5 1.6-3.1 5.1-1.5 7.7 4.1 6.2 8.3 12.2 12.7 18 1.8 2.5 5.2 3 7.7 1.2s3-5.2 1.2-7.7c-4.2-5.7-8.3-11.8-12.4-17.8-1.1-1.6-2.9-2.4-4.7-2.4z m27.3 37.6c-1.2 0-2.3 0.4-3.4 1.1-2.3 1.9-2.9 5.3-1 7.7 4.5 5.9 9.2 11.6 13.8 17.2 1.9 2.3 5.3 2.6 7.7 0.7 2.3-1.9 2.6-5.3 0.7-7.7-4.5-5.5-9.2-11.2-13.7-17-0.8-1.3-2.4-2-4.1-2z m30 35.7c-1.4 0-2.6 0.4-3.7 1.4-2.2 2.1-2.5 5.5-0.4 7.7 4.9 5.5 10.1 10.9 15.2 16.1 2.1 2.2 5.6 2.2 7.8 0.1s2.2-5.6 0.1-7.8c-4.9-5.1-10-10.4-14.8-15.9-1.3-1.1-2.7-1.6-4.2-1.6z m32.5 33c-1.5 0-2.9 0.5-4 1.8-2.1 2.2-1.9 5.6 0.3 7.8 0.8 0.8 1.8 1.6 2.6 2.5 2.2 2.1 5.7 1.9 7.8-0.3 2.1-2.2 1.9-5.7-0.3-7.8-0.8-0.8-1.8-1.6-2.6-2.5-1.2-0.9-2.4-1.5-3.8-1.5zM450.7 428.1h-0.8c-3.7 0.4-6.4 3.8-6 7.5 13.3 120.3 61.1 212.1 98.8 268 41.7 61.8 85.4 100.6 99.8 103.9 6.2 1.4 9.2-2.3 9.8-3.6 3.1-5.1 0.7-11.6-9.3-23.9-23.4-29.1-40.6-79.7-48.4-142.6-6.4-52.1-5.2-104.8 3.3-131.5 1.1-3.6-0.8-7.4-4.5-8.6-3.6-1.1-7.4 0.8-8.6 4.5-16.7 52.6-9.4 205.5 41.8 279-17.5-15-44.3-43.2-72.3-84.6-37-54.7-83.8-144.6-96.9-262.5-0.2-3-3.2-5.6-6.7-5.6zM402.5 539.3h-0.4c-3.8 0.3-6.7 3.4-6.4 7.2C398.3 588.7 397.3 633 392.8 682 388.3 731.4 382 783.1 359 824.1c-5.9 10.4-13.5 17.4-22.4 25.4-2.1 1.9-4.2 3.8-6.4 6-2.1 1.9-7.5 7.1-3.3 12.4 4.4 5.5 10.9 1.1 14.5-1.2 31.6-20.8 58.2-49.9 80.1-75.6C463.6 741.9 494.6 689.3 513.8 634.8c1.2-3.6-0.7-7.5-4.2-8.7-3.6-1.2-7.5 0.7-8.7 4.2C482.2 683.1 452 734.3 411 782.2c-10.4 12.3-22 25.3-34.6 37.6C396.3 778.8 402.2 730 406.5 683.4 411 633.5 412 588.5 409.4 545.7c-0.3-3.6-3.4-6.4-6.9-6.4zM468.2 330.3c-3.4 0-6.4 2.6-6.8 6.2-9 95.5-62.7 218.6-140.2 321.1-76.8 101.6-162.7 165.1-238.7 177.6C280.4 699.8 333.6 409.5 330.7 336.9c-0.1-3.8-3.3-6.7-7.1-6.6-3.8 0.1-6.7 3.3-6.6 7.1 0.5 15-1.8 46.1-10 88-6.3 32.1-18.5 82-40.3 138.1-33.4 85.7-96.7 202.3-207.9 270.7-3.6 2.3-5.1 6.6-3.8 10.5 1.2 3.8 5.1 6.4 9 6.2 84.5-4.2 182.2-71.6 268.1-185.1 79-104.4 133.7-230.1 143-328.1 0.4-3.7-2.5-7.1-6.2-7.4h-0.7zM666 330.3c-3.7 0-6.8 3-6.8 6.7-1.1 60.4 30.8 163.8 79.3 257.4 56 108.3 127.7 193.4 203.1 242C743 819.7 602.3 610.8 584.3 419.5c-0.4-3.7-3.7-6.6-7.4-6.2-3.7 0.4-6.6 3.7-6.2 7.4C580.5 523.8 624.1 629 690.5 709.4 725.8 752 765.8 785.9 809.7 810c47.6 26.1 98.1 39.9 150.5 41.1h0.1c4.1 0 7.7-2.7 8.7-6.7 1.1-4-0.7-7.9-4.2-10-79.1-45-155.1-132.5-214-246.3-55-105.9-78.6-202.4-77.8-251-0.1-3.6-3.1-6.8-7-6.8 0.2 0 0 0 0 0zM450.7 428.1h-0.8c-3.7 0.4-6.4 3.8-6 7.5 13.3 120.3 61.1 212.1 98.8 268 41.7 61.8 85.4 100.6 99.8 103.9 6.2 1.4 9.2-2.3 9.8-3.6 3.1-5.1 0.7-11.6-9.3-23.9-23.4-29.1-40.6-79.7-48.4-142.6-6.4-52.1-5.2-104.8 3.3-131.5 1.1-3.6-0.8-7.4-4.5-8.6-3.6-1.1-7.4 0.8-8.6 4.5-16.7 52.6-9.4 205.5 41.8 279-17.5-15-44.3-43.2-72.3-84.6-37-54.7-83.8-144.6-96.9-262.5-0.2-3-3.2-5.6-6.7-5.6zM402.5 539.3h-0.4c-3.8 0.3-6.7 3.4-6.4 7.2C398.3 588.7 397.3 633 392.8 682 388.3 731.4 382 783.1 359 824.1c-5.9 10.4-13.5 17.4-22.4 25.4-2.1 1.9-4.2 3.8-6.4 6-2.1 1.9-7.5 7.1-3.3 12.4 4.4 5.5 10.9 1.1 14.5-1.2 31.6-20.8 58.2-49.9 80.1-75.6C463.6 741.9 494.6 689.3 513.8 634.8c1.2-3.6-0.7-7.5-4.2-8.7-3.6-1.2-7.5 0.7-8.7 4.2C482.2 683.1 452 734.3 411 782.2c-10.4 12.3-22 25.3-34.6 37.6C396.3 778.8 402.2 730 406.5 683.4 411 633.5 412 588.5 409.4 545.7c-0.3-3.6-3.4-6.4-6.9-6.4zM634.2-102.6H342.1c-20.4 0-37.3 15.2-39.5 35.4L264 282.5h448.2l-38.5-349.7c-2.2-20.2-19.1-35.4-39.5-35.4z m-354.9 371.4l36.9-334.6c1.4-13.3 12.6-23.1 25.8-23.1h292.1c13.4 0 24.5 10 25.8 23.1l36.9 334.6h-417.5zM717.6 268.8h-457.5c-18.9 0-34.2 15.3-34.2 34.2v6.8c0 18.9 15.3 34.2 34.2 34.2h457.7c9.2 0 17.8-3.6 24.2-10.1 6.4-6.4 10-15 9.8-24.1v-6.8c-0.1-18.9-15.4-34.2-34.2-34.2z m-457.5 61.5c-11.3 0-20.5-9.2-20.5-20.5v-6.8c0-11.3 9.2-20.5 20.5-20.5h457.5c11.3 0 20.5 9.2 20.5 20.5v6.8c0 5.5-2.1 10.5-5.9 14.5-3.8 4-9 6-14.5 6h-457.6zM597.4 41.8c-10.8 0-16.3 0.7-21.6 1.4-5.1 0.7-9.8 1.4-19.7 1.4-9.8 0-14.6-0.7-19.7-1.4-5.3-0.7-10.8-1.4-21.6-1.4s-16.3 0.7-21.6 1.4c-5.1 0.7-9.8 1.4-19.7 1.4s-14.6-0.7-19.7-1.4c-5.3-0.7-10.8-1.4-21.6-1.4s-16.3 0.7-21.6 1.4c-5.1 0.7-9.8 1.4-19.7 1.4-3.8 0-6.8 3-6.8 6.8s3 6.8 6.8 6.8c10.8 0 16.3-0.7 21.6-1.4 5.1-0.7 9.8-1.4 19.7-1.4s14.6 0.7 19.7 1.4c5.3 0.7 10.8 1.4 21.6 1.4s16.3-0.7 21.6-1.4c5.1-0.7 9.8-1.4 19.7-1.4s14.6 0.7 19.7 1.4c5.3 0.7 10.8 1.4 21.6 1.4s16.3-0.7 21.6-1.4c5.1-0.7 9.8-1.4 19.7-1.4 3.8 0 6.8-3 6.8-6.8 0.1-3.8-3-6.8-6.8-6.8zM634.9-9.6c-8.9 0-13.4 0.7-17.8 1.5-4 0.7-7.8 1.2-15.6 1.2s-11.6-0.7-15.6-1.2c-4.4-0.7-8.9-1.5-17.8-1.5s-13.4 0.7-17.8 1.5c-4 0.7-7.8 1.2-15.6 1.2s-11.6-0.7-15.6-1.2c-4.4-0.7-8.9-1.5-17.8-1.5s-13.4 0.7-17.8 1.5c-4 0.7-7.8 1.2-15.6 1.2-3.8 0-6.8 3-6.8 6.8s3 6.8 6.8 6.8c8.9 0 13.4-0.7 17.8-1.5 4-0.7 7.8-1.2 15.6-1.2s11.6 0.7 15.6 1.2c4.4 0.7 8.9 1.5 17.8 1.5s13.4-0.7 17.8-1.5c4-0.7 7.8-1.2 15.6-1.2s11.6 0.7 15.6 1.2c4.4 0.7 8.9 1.5 17.8 1.5s13.4-0.7 17.8-1.5c4-0.7 7.8-1.2 15.6-1.2 3.8 0 6.8-3 6.8-6.8s-3-6.8-6.8-6.8z"  horiz-adv-x="1024" />

    
    <glyph glyph-name="houtui" unicode="&#59126;" d="M170.345412 384.903529l383.337412-383.337411a60.235294 60.235294 0 0 0-85.172706-85.172706l-425.86353 425.863529a60.235294 60.235294 0 0 0 0 85.232941l425.86353 425.86353A60.235294 60.235294 0 0 0 553.682824 768.301176L170.345412 384.903529z"  horiz-adv-x="1024" />

    
    <glyph glyph-name="sousuo" unicode="&#59016;" d="M837.8 2.3L684.5 267.9c54.9 41.5 94.2 99.8 112.4 167.4 21.5 80.3 10.5 164.3-31.1 236.3S657.1 795.2 576.7 816.7c-80.3 21.5-164.3 10.5-236.3-31.1S216.8 676.9 195.3 596.5s-10.5-164.3 31.1-236.3 108.7-123.6 189.1-145.1c26.8-7.2 54-10.7 81.1-10.7 39.2 0 78.1 7.5 114.8 22.2l153.7-266.2 72.7 41.9zM437.2 296.2c-58.7 15.7-107.7 53.3-138.1 105.9-62.7 108.6-25.4 247.9 83.2 310.6 35.7 20.6 74.8 30.4 113.3 30.4 78.6 0 155.2-40.8 197.3-113.6 62.7-108.6 25.4-247.9-83.2-310.6-52.5-30.4-113.8-38.4-172.5-22.7z"  horiz-adv-x="1024" />

    
    <glyph glyph-name="shoucang" unicode="&#58881;" d="M768-71.67999999999995c-10.24 0-22.18666667 3.41333333-32.42666667 8.53333333l-221.86666666 110.93333334-223.57333334-110.93333334c-22.18666667-11.94666667-51.2-10.24-71.68 5.12-20.48 15.36-32.42666667 42.66666667-27.30666666 68.26666667l46.08 238.93333333L61.44 413.01333333C42.66666667 431.78666667 35.84 460.8 42.66666667 484.69333333c8.53333333 25.6 29.01333333 44.37333333 56.32 47.78666667l244.05333333 44.37333333 109.22666667 221.86666667c11.94666667 23.89333333 35.84 39.25333333 61.44 39.25333333s51.2-15.36 61.44-39.25333333l109.22666666-221.86666667 244.05333334-42.66666666c25.6-3.41333333 47.78666667-22.18666667 54.61333333-47.78666667 8.53333333-25.6 1.70666667-52.90666667-17.06666667-71.68L790.18666667 249.17333333l44.37333333-238.93333333c5.12-27.30666667-6.82666667-52.90666667-27.30666667-68.26666667-10.24-8.53333333-23.89333333-13.65333333-39.25333333-13.65333333z"  horiz-adv-x="1024" />

    
    <glyph glyph-name="icon-test" unicode="&#58989;" d="M605.9 230.5m-49.9 0a49.9 49.9 0 1 1 99.8 0 49.9 49.9 0 1 1-99.8 0ZM605.9 122.7c-31.9 0-57.9 26-57.9 57.9s26 57.9 57.9 57.9 57.9-26 57.9-57.9-26-57.9-57.9-57.9z m0 99.8c-23.1 0-41.9-18.8-41.9-41.9 0-23.1 18.8-41.9 41.9-41.9s41.9 18.8 41.9 41.9c0 23.1-18.8 41.9-41.9 41.9zM358.6 400.6c-14 0-20.6 6.4-29.7 15.2-9.7 9.6-23 22.7-47.7 22.7-5.9 0-11.1-0.7-16.4-2.2l-12.9-3.7 1.5 13.3c5.6 50.1 26.2 92.3 61.1 125.4 32.3 30.7 76.3 52.2 127.3 62.2l8.2 1.6 2.2-8c7.4-26.6 31.8-45.1 59.4-45.1 27.5 0 52 18.5 59.4 45.1l2.2 8 8.2-1.6c50.7-10 94.5-31.3 126.7-61.8 34.9-32.9 55.6-74.8 61.4-124.4l1.5-12.5-12.3 2.7c-4.3 0.9-8.5 1.4-12.8 1.4-24.8 0-38-13.1-47.7-22.6-9-8.9-15.5-15.3-29.6-15.3-14 0-20.6 6.4-29.7 15.2-9.7 9.6-23 22.7-47.7 22.7-24.7 0-37.4-12.4-47.6-22.4-9.6-9.3-15.9-15.5-30-15.5h-6l-0.7 0.1c-9.5 1.6-15.1 7-22.8 14.5l-0.3 0.3c-10.9 10.6-23.3 22.5-47.7 22.5-24.8 0-38-13.1-47.7-22.6-9.1-8.8-15.6-15.2-29.8-15.2z m-77.4 55.9c32.2 0 49.8-17.4 60.3-27.8 8.9-8.7 10.8-10.1 17.1-10.1 6.3 0 8.1 1.4 17 10.1 10.5 10.4 28.2 27.8 60.3 27.8 31.7 0 48.9-16.6 60.2-27.6l0.3-0.3c6.6-6.4 9.3-8.8 12.6-9.5h4.4c6 0 7.8 1.1 17.4 10.4C542 440.5 559 457 591 457c32.2 0 49.8-17.4 60.3-27.8 8.9-8.7 10.8-10.1 17.1-10.1 6.1 0 7.8 1 17 10.1 10.5 10.4 28.2 27.8 60.3 27.8 1.4 0 2.8 0 4.1-0.1-7 40.3-25.2 74.5-54.2 101.9-28.1 26.5-66.1 45.7-110.2 55.6-11.9-30-41.2-50.2-74-50.2-32.7 0-62.1 20.3-74 50.2-44.3-10-82.5-29.2-110.7-56-28.9-27.5-47-61.8-53.9-102.2 2.9 0.2 5.6 0.3 8.4 0.3zM311 58.4c-6.1 0-12.4 1-18.3 2.9-7 2.3-12.7 7.5-15.6 14.3-3 7.1-2.8 15.1 0.6 22l2.2 4.5-47.3 227.1c-1.8 3.7-5.1 12.4 0.3 20.6l0.5 0.8 0.7 0.7c0.6 0.6 1.5 1.3 3.2 2.1 10 9.7 21.6 20.2 43.8 20.2 23.2 0 35.2-11.9 44.9-21.5l0.2-0.1c9.4-9 16.8-16.2 32.3-16.2 15.7 0 23.1 7.2 32.5 16.3 5.1 5 10.4 10.2 17.4 14.3 8.2 4.8 17.2 7.2 27.5 7.2 23.1 0 34.7-11.3 44.9-21.3l0.5-0.5c8.1-7.8 14.7-14.1 26.4-15.7h5.8c15.7 0 23 7.1 32.3 16.2l0.6 0.6c10.3 9.9 21.9 21.1 44.7 21.1 23.2 0 35.2-11.9 44.9-21.5l0.2-0.2c9.4-9 16.8-16.2 32.3-16.2 15.7 0 23.1 7.2 32.5 16.3 5.1 5 10.5 10.2 17.4 14.3 8.2 4.8 17.2 7.2 27.5 7.2 22.2 0 33.8-10.5 43.7-20.2 1.9-0.9 3.3-2.1 4.4-3.6 3.8-5.8 3.9-13.2 0.3-20.5l-46.9-227.2 2.2-4.4c3.4-7 3.6-15 0.6-22-2.9-6.8-8.5-12-15.4-14.3-5.7-1.9-11.9-2.9-18.5-2.9l-405.3-0.4zM248.7 337l1-1.4 0.2-1.5 48.8-234.4-4.9-10c-1.1-2.2-1.1-4.8-0.2-7 0.5-1.2 1.8-3.3 4.5-4.2 4.1-1.3 8.6-2 12.8-2l405.2 0.4c4.6 0 8.9 0.7 12.7 2h0.1c2.8 0.9 4 3 4.5 4.2 1 2.3 0.9 4.8-0.2 7.1l-4.9 9.9 0.6 3 47.8 231.3c0.3 1.4 0.8 2.3 1 2.8 0.4 0.8 0.7 1.5 0.8 2l-0.6 0.6c-9.3 9-16.6 16.2-32.3 16.2-15.6 0-23-7.2-32.4-16.3-10.3-10.1-22-21.5-45.1-21.5-22.8 0-34.5 11.3-44.8 21.2l-0.3 0.3c-9.2 9.1-16.5 16.3-32.3 16.3-15.5 0-22.9-7.1-32.2-16l-0.5-0.5c-8.8-8.6-18.6-18.2-35.9-20.7v-1h-9c-22.8 0-34.4 11.2-44.7 21.1l-0.6 0.6c-9.3 9-16.6 16.2-32.3 16.2-15.6 0-23-7.2-32.4-16.3-10.3-10.1-22-21.5-45.1-21.5-22.8 0-34.5 11.3-44.8 21.2l-0.3 0.3c-8.9 8.8-16.5 16.3-32.3 16.3-15.5 0-22.9-7.1-32.2-16l-0.7-0.7c0.5-0.8 0.8-1.5 1-2zM462.8 643.8c0-26.9 21.8-48.8 48.8-48.8 26.9 0 48.8 21.8 48.8 48.8 0 26.9-21.8 48.8-48.8 48.8-27 0-48.8-21.9-48.8-48.8z m0 0"  horiz-adv-x="1024" />

    
    <glyph glyph-name="hua" unicode="&#58924;" d="M626.915 389.475z m28.242 295.422c-37.145 57.099-75.006 107.854-35.098 161.985-42.876 10.029-77.156-17.088-82.068-53.415-69.89-34.178-48.4-91.277-34.177-145.511 35.712-17.191 72.141-49.322 97.11-87.184 9.311-14.94 18.623-29.982 22.819-45.638 7.163-22.82 2.865-32.848 0.102-58.532 0-5.73 3.581-19.238 4.298-27.117 2.149-5.014 3.581-10.642 4.297-14.224 0.717-10.744-2.148-19.237-5.73-25.684 18.522 15.656 41.34 32.847 47.685 59.248 2.865 11.46 6.447 20.67 7.88 29.266 8.493 31.415 19.237 29.266 24.251 68.458 8.698 54.029-22 94.756-51.369 138.348zM482.53 659.314c0.717 12.178-37.963 97.826 31.313 138.45-67.844 49.323-168.535-11.255-160.553-89.025 27.014 24.15 83.5 4.81 129.24-49.425z m140.804-271.988z m0 0c2.15 5.014 3.582 10.642 2.865 19.954 0.717 5.014-2.148 12.074-4.297 18.521-2.15 6.447-3.582 14.94-3.582 23.536-1.432 7.163-0.716 13.61-0.716 20.67 0.716 12.177 0 22.82-4.298 35.713-17.191 54.234-80.02 114.3-125.761 125.659-73.677 83.602-119.315 72.244-145.716 54.439-23.536 12.177-79.305-0.614-102.738-38.476 84.933 0.716 123.613-190.638 186.545-236.276 54.336-38.578 71.425-24.354 112.05-37.964 35.61-8.596 62.01 2.047 85.648 14.224z m13.098-55.36c2.252 12.28 9.824 21.898 13.815 29.164 11.46 23.944 35.2 55.973 33.768 82.988-9.619-35.201-39.09-70.914-88.923-81.658-19.647-3.99-45.434-6.958-69.89 6.651 21.386-18.828 47.377-22.717 90.253-39.806l11.768 1.433c87.593-201.484-2.865-379.434-2.865-379.434 123.408 177.13 45.229 326.94 8.697 380.15l3.377 0.512z"  horiz-adv-x="1024" />

    
    <glyph glyph-name="qiandao" unicode="&#58928;" d="M855.2 779.2H747.5V814.6c0 9.8-7.9 17.5-17.9 17.5h-7.2c-10 0-18.6-7.7-18.3-17.5v-35H324.8v35c0 9.8-5.7 17.5-15.4 17.5h-11.1c-10 0-17.9-7.7-17.9-17.5v-35h-126c-54.8 0-89.8-40.9-89.8-87.8v-670.6c0-58.1 35.1-84.7 89.8-84.7h718.7c54.8 0 89.8 38.1 89.8 84.7V691.4c0 46.9-52.9 87.8-107.7 87.8zM737.8 366.6L478.2 85.39999999999998c-13.6-15-35.9-15-49.9 0L281.7 243.70000000000005c-14 15-19.3 33.4-5.3 47.9 0 0 13.1 10.7 28.9 1.7l147.9-160.5 256.1 277.8c14 15 27.6 20.1 41.6 5.1 14-14.9 0.9-34.1-13.1-49.1z m180.4 236.9H109v87.8c0 19.2 25.8 44.4 45.5 44.4h125.6v-44.4c0-9.8 7.9-17.5 17.9-17.5h12.5c10 0 14 7.7 14 17.5v44.4h379v-44.4c0-9.8 11.1-17.5 21.1-17.5h4.7c10 0 17.9 7.7 17.9 17.5v44.4h125.6c19.7 0 45.5-25.2 45.5-44.4v-87.8z"  horiz-adv-x="1024" />

    
    <glyph glyph-name="hanbaocaidanzhengchang" unicode="&#58927;" d="M213.333 8.533c-17.066 0-34.133 17.067-34.133 34.134V725.333c0 17.067 17.067 34.134 34.133 34.134s34.134-17.067 34.134-34.134v-682.666c0-17.067-17.067-34.134-34.134-34.134z m298.667 0c-17.067 0-34.133 17.067-34.133 34.134V725.333c0 17.067 17.066 34.134 34.133 34.134s34.133-17.067 34.133-34.134v-682.666c0-17.067-17.066-34.134-34.133-34.134z m298.667 0c-17.067 0-34.134 17.067-34.134 34.134V725.333c0 17.067 17.067 34.134 34.134 34.134S844.8 742.4 844.8 725.333v-682.666c0-17.067-17.067-34.134-34.133-34.134z"  horiz-adv-x="1024" />

    
    <glyph glyph-name="bi" unicode="&#58909;" d="M974.72 672L798.08 848.64a52.928 52.928 0 0 1-75.52 0l-603.52-603.52c-6.4-6.4-10.88-14.72-13.44-23.04L35.84-28.16c-5.12-18.56 0-39.04 14.08-52.48 10.24-10.24 23.68-15.36 37.12-15.36 5.12 0 10.24 0.64 15.36 1.92l246.4 73.6c8.32 2.56 16 7.04 22.4 13.44l603.52 603.52c21.12 20.48 21.12 54.4 0 75.52z m-113.28-37.76l-34.56-34.56-101.12 101.12 34.56 34.56 101.12-101.12z m-517.76-518.4L242.56 217.6l407.68 407.68 101.12-101.12-407.68-408.32z m-155.52 5.12l60.16-60.16-83.84-24.96 23.68 85.12z"  horiz-adv-x="1024" />

    
    <glyph glyph-name="shoucangchangtai" unicode="&#58920;" d="M219.707535-127.642791c-11.264 0-21.289674 4.715163-28.195721 13.288186-5.715349 7.144186-11.835535 20.027535-8.406326 41.19814l45.437024 279.31386c2.786233 17.146047-5.524837 43.817674-17.431814 55.962791L17.146047 459.633116c-14.193116 14.45507-19.57507 31.672558-14.764652 47.22307 4.810419 15.574326 18.813023 26.219163 38.388093 29.243535l267.692652 41.055256c16.431628 2.524279 38.102326 19.051163 45.437023 34.649302l119.45079 254.237768c8.739721 18.598698 22.742326 29.291163 38.36428 29.291162s29.600744-10.644837 38.364279-29.219721l120.022325-253.928186c7.382326-15.59814 29.053023-32.053581 45.484651-34.530232l267.787907-40.436093c19.598884-2.95293 33.625302-13.573953 38.459535-29.124465 4.834233-15.550512-0.500093-32.791814-14.669395-47.270698l-193.512186-198.036837c-11.906977-12.145116-20.146605-38.816744-17.312744-55.986605l46.032372-279.242419c3.500651-21.146791-2.619535-34.053953-8.334884-41.198139-11.906977-14.812279-32.791814-17.550884-53.676651-6.096372l-239.616 131.572093c-14.026419 7.715721-42.198326 7.668093-56.20093-0.071442l-239.330233-132.143628c-8.787349-4.834233-17.384186-7.28707-25.528558-7.28707zM47.580279 491.567628l193.559814-197.131907c22.218419-22.64707 35.05414-63.845209 29.862698-95.851163L225.661023-80.133953l238.853954 131.85786c26.314419 14.526512 69.87014 14.57414 96.256 0.11907l239.115907-131.31014-45.960931 278.623256c-5.262884 32.029767 7.477581 73.275535 29.648373 95.946419l193.131162 197.584372-267.240186 40.340837c-30.672372 4.643721-64.178605 30.077023-77.943069 59.177674L511.76186 845.609674 392.549209 591.895814c-13.693023-29.124465-47.151628-54.653023-77.824-59.344372l-267.14493-40.96z"  horiz-adv-x="1024" />

    
    <glyph glyph-name="shipin" unicode="&#59004;" d="M686.1 302.2h3.5v-3.5h-3.5zM686.1 295.2h3.5v-3.5h-3.5zM686.1 302.2h3.5v-3.5h-3.5zM686.1 295.2h3.5v-3.5h-3.5zM158.1 478c0 31.4 12.7 61.6 35.4 83.8 22.7 22.2 53.5 34.7 85.6 34.7h559.7c7.3 0 14.5-0.7 21.6-1.9-5.7 18.2-15.9 34.9-29.9 48.7-22.7 22.2-53.4 34.7-85.5 34.7h-22.5l-40.1-65.1-67.1 0.1v-0.1H485.9l-0.1 0.2-66.8-0.1-39.9 64.9H185.3c-32.1 0-62.9-12.4-85.6-34.7C77 621 64.3 590.8 64.3 559.4v-401.2c0-31.4 12.8-61.5 35.5-83.7 17.5-17.1 39.8-28.4 63.8-32.7-3.5 11.2-5.4 23-5.4 34.9V478zM615.3 612.8l40.2 65.1H446l39.8-65zM377.6 717.9L331 794c-7.8 13.7-26 18.8-40.5 11.4-13.4-8.6-17.6-25.5-9.7-38.8l44.3-72.1h46.1c-1.5 8.2 0.8 16.8 6.4 23.4zM632.9 766.4c7.7 13.4 3.5 30-9.7 38.7-7 3.6-15.2 4.4-22.8 2.2-7.6-2.1-14-7.1-17.7-13.7l-61.3-99.3 67.1-0.1 44.4 72.2zM521.4 694.3h0.1l-85.6 0.1 0.1-0.1zM924.3 561.7c-17.5 17.2-39.9 28.5-63.9 32.8-7.1 1.3-14.3 1.9-21.6 1.9H279.1c-32.1 0-62.9-12.4-85.6-34.7-22.7-22.2-35.4-52.4-35.4-83.8v-401.2c0-12 1.9-23.7 5.4-34.9 5.8-18.3 16-35 30.1-48.8 22.7-22.2 53.5-34.7 85.6-34.6h531.4c-0.1 0-0.1 0.1-0.1 0.1l-12.6 0.1c-74.8 64.4-102.7 171.2-69.6 266.5 33.1 95.3 120 158.5 217 157.8l-0.1-13.7-2.1-289.3c-0.7-67.5-53.4-121.9-118.1-121.4l-9.8 0.1 0.1-0.1h27.3c64.6 0 117 54.8 117 122.3V478c0.1 31.3-12.6 61.5-35.3 83.7zM728.2 237.8L505.5 109.9c-6-3.5-13.5-3.5-19.5-0.1s-9.8 9.7-9.8 16.6V382.6c0 6.9 3.8 13.2 9.8 16.6 6 3.4 13.5 3.4 19.5-0.1l222.7-128c6-3.4 9.8-9.8 9.8-16.6 0-6.9-3.8-13.2-9.8-16.7zM485.8 612.9l-39.8 65-10 16.4-0.1 0.1-11.1 18.1c-7.8 13.7-26 18.8-40.5 11.4-2.6-1.7-4.9-3.8-6.8-6-5.6-6.6-7.9-15.2-6.4-23.4 0.6-3.2 1.7-6.4 3.5-9.4l4.4-7.2 40-64.9 66.8-0.1zM485.9 612.8h129.4l-129.5 0.1zM682.4 612.8l40.1 65.1 4.3 7c7.7 13.4 3.5 30-9.7 38.7-7 3.6-15.2 4.4-22.8 2.2-7.6-2.1-14-7.1-17.7-13.7l-21.1-34.2-40.2-65.1h67.1zM942.9 79.9l2.1 289.3 0.1 13.7c-97 0.7-183.9-62.5-217-157.8-33.1-95.3-5.2-202 69.6-266.5l12.6-0.1h4.9l9.8-0.1c64.7-0.4 117.4 54 117.9 121.5zM728.2 271.1l-222.7 128c-6 3.5-13.5 3.5-19.5 0.1s-9.8-9.7-9.8-16.6v-256.2c0-6.9 3.8-13.2 9.8-16.6 6-3.4 13.5-3.4 19.5 0.1l222.7 127.9c6 3.4 9.8 9.8 9.8 16.7 0 6.9-3.8 13.2-9.8 16.6z"  horiz-adv-x="1024" />

    
    <glyph glyph-name="caipu" unicode="&#59060;" d="M278.807442 616.262453h278.714665a46.452444 46.452444 0 0 1 0 92.904888H278.807442a46.452444 46.452444 0 0 1 0-92.904888zM766.093581 517.318747a71.536764 71.536764 0 0 1-35.768382 6.038818H291.814127a71.536764 71.536764 0 0 1-35.768382-6.038818 46.452444 46.452444 0 0 1-17.651929-17.651929 71.536764 71.536764 0 0 1-6.038818-35.768382v-345.606184a71.536764 71.536764 0 0 1 6.038818-35.768382 46.452444 46.452444 0 0 1 17.651929-17.651929 71.536764 71.536764 0 0 1 35.768382-6.038817h438.511072a71.536764 71.536764 0 0 1 35.768382 6.038817 46.452444 46.452444 0 0 1 17.651928 17.651929 71.536764 71.536764 0 0 1 6.038818 35.768382V463.898436a71.536764 71.536764 0 0 1-6.038818 35.768382 46.452444 46.452444 0 0 1-17.651928 17.651929zM957.013126 823.904878A129.602319 129.602319 0 0 1 904.521864 876.39614a204.390754 204.390754 0 0 1-107.76967 18.580977H225.387132a204.390754 204.390754 0 0 1-107.769671-18.580977A129.602319 129.602319 0 0 1 65.126199 823.904878 204.390754 204.390754 0 0 1 46.545222 716.135207v-664.26995a204.390754 204.390754 0 0 1 18.580977-107.76967 129.602319 129.602319 0 0 1 52.491262-52.491262 204.390754 204.390754 0 0 1 107.769671-18.580978h571.365062a204.390754 204.390754 0 0 1 107.76967 18.580978 129.602319 129.602319 0 0 1 52.491262 52.491262 204.390754 204.390754 0 0 1 18.580977 107.76967V716.135207a204.390754 204.390754 0 0 1-18.580977 107.769671zM882.689215 51.865257c0-42.736249 0-53.420311-7.432391-63.639848a38.091004 38.091004 0 0 0-14.864782-14.864782c-10.219538-5.574293-20.9036-7.432391-63.639848-7.432391H225.387132c-42.736249 0-53.420311 0-63.639849 7.432391a38.091004 38.091004 0 0 0-14.864782 14.864782C139.45011-1.555054 139.45011 9.129009 139.45011 51.865257V716.135207c0 42.736249 0 53.420311 7.432391 63.639849a38.091004 38.091004 0 0 0 14.864782 14.864782C171.966821 802.072229 182.650883 802.072229 225.387132 802.072229h571.365062c42.736249 0 53.420311 0 63.639848-7.432391a38.091004 38.091004 0 0 0 14.864782-14.864782c5.574293-10.219538 7.432391-20.9036 7.432391-63.639849z"  horiz-adv-x="1024" />

    


  </font>
</defs>
</svg>
